Coordinates
version=1
nRows=10
nColumns=63
inDegrees=yes

Units are S.I. units (second, meters, Newtons, ...)
If the header above contains a line with 'inDegrees', this indicates whether rotational values are in degrees (yes) or radians (no).

endheader
time	pelvis_tilt	pelvis_list	pelvis_rotation	pelvis_tx	pelvis_ty	pelvis_tz	hip_flexion_r	hip_adduction_r	hip_rotation_r	knee_angle_r	knee_angle_r_beta	ankle_angle_r	subtalar_angle_r	mtp_angle_r	hip_flexion_l	hip_adduction_l	hip_rotation_l	knee_angle_l	knee_angle_l_beta	ankle_angle_l	subtalar_angle_l	mtp_angle_l	L5_S1_Flex_Ext	L5_S1_Lat_Bending	L5_S1_axial_rotation	L4_L5_Flex_Ext	L4_L5_Lat_Bending	L4_L5_axial_rotation	L3_L4_Flex_Ext	L3_L4_Lat_Bending	L3_L4_axial_rotation	L2_L3_Flex_Ext	L2_L3_Lat_Bending	L2_L3_axial_rotation	L1_L2_Flex_Ext	L1_L2_Lat_Bending	L1_L2_axial_rotation	L1_T12_Flex_Ext	L1_T12_Lat_Bending	L1_T12_axial_rotation	Abs_r3	Abs_r2	Abs_r1	Abs_t1	Abs_t2	neck_flexion	neck_bending	neck_rotation	arm_flex_r	arm_add_r	arm_rot_r	elbow_flex_r	pro_sup_r	wrist_flex_r	wrist_dev_r	arm_flex_l	arm_add_l	arm_rot_l	elbow_flex_l	pro_sup_l	wrist_flex_l	wrist_dev_l
2.300000	0.149260	-7.389655	93.619292	0.107010	0.967834	0.441013	5.683304	2.898699	5.147818	1.015506	0.017724	11.387267	-13.527022	0.000000	8.199274	-3.671850	4.174855	1.694274	0.029571	22.360940	4.582462	0.000000	0.068356	0.353490	0.098451	0.126943	0.470141	0.104604	0.112302	0.859475	0.104604	0.078124	0.859475	0.086145	0.063475	0.720836	0.079992	0.039058	0.547556	0.073838	0.488258	3.998747	0.547556	0.000000	0.000000	18.480720	0.842721	6.840945	14.041657	-13.076503	76.109252	45.566439	40.964257	-10.366429	-0.674939	12.053864	-4.663275	51.931973	39.311791	80.640781	10.866406	0.312251
2.316667	0.172624	-7.643016	93.505704	0.107071	0.967512	0.440675	5.947123	2.920375	5.216862	1.005524	0.017550	11.480643	-13.448487	0.000000	8.411970	-3.692384	3.930249	1.706061	0.029776	22.521960	4.764654	0.000000	0.072573	0.353830	0.111763	0.134776	0.470594	0.118748	0.119231	0.860302	0.118748	0.082944	0.860302	0.097792	0.067392	0.721530	0.090807	0.041468	0.548083	0.083822	0.518384	4.002596	0.621590	0.000000	0.000000	18.964073	0.883119	7.132052	13.837983	-13.007210	75.759780	45.568345	39.453165	-10.006352	-0.975107	11.699321	-4.722949	51.084159	39.759989	81.093271	10.694300	0.538808
2.333333	0.186769	-7.920930	93.359917	0.107141	0.967175	0.440342	6.250307	2.934347	5.129149	1.009920	0.017626	11.688379	-13.082221	0.000000	8.651796	-3.708916	3.603068	1.727645	0.030153	22.680004	5.015028	0.000000	0.075969	0.353089	0.134982	0.141081	0.469609	0.143418	0.124809	0.858501	0.143418	0.086824	0.858501	0.118109	0.070544	0.720020	0.109673	0.043408	0.546935	0.101236	0.542636	3.994217	0.750727	0.000000	0.000000	19.538690	0.904492	7.355966	13.582939	-12.930687	75.237682	45.562453	37.955858	-9.579522	-1.222922	11.386448	-4.759141	50.303765	40.187802	81.600667	10.578979	0.797598
2.350000	0.191632	-8.209083	93.203892	0.107193	0.966840	0.440048	6.575175	2.938258	4.883639	1.024728	0.017885	12.000578	-12.450222	0.000000	8.920011	-3.721162	3.189433	1.783091	0.031121	22.848121	5.380639	0.000000	0.077265	0.351090	0.163023	0.143488	0.466949	0.173211	0.126938	0.853639	0.173211	0.088306	0.853639	0.142645	0.071748	0.715942	0.132456	0.044149	0.543838	0.122267	0.551894	3.971596	0.906682	0.000000	0.000000	20.167807	0.896278	7.475843	13.299790	-12.850418	74.606519	45.555685	36.569454	-9.151513	-1.456239	11.130784	-4.781384	49.637908	40.578955	82.092905	10.473215	1.015386
2.366667	0.174389	-8.505863	92.980946	0.107306	0.966507	0.439801	6.924116	2.922896	4.629463	1.054940	0.018412	12.348174	-11.714869	0.000000	9.190578	-3.720379	2.701160	1.835503	0.032036	22.987380	5.769477	0.000000	0.077071	0.346217	0.212486	0.143129	0.460468	0.225766	0.126620	0.841791	0.225766	0.088085	0.841791	0.185925	0.071568	0.706005	0.172645	0.044038	0.536290	0.159364	0.550512	3.916473	1.181781	0.000000	0.000000	20.831755	0.849177	7.445641	12.963290	-12.779028	73.812165	45.567386	35.155707	-8.647725	-1.620266	10.959122	-4.786585	49.156086	40.893204	82.560524	10.366617	1.142495
2.383333	0.142370	-8.804033	92.722161	0.107434	0.966181	0.439617	7.286424	2.896079	4.382696	1.098563	0.019174	12.714733	-10.943980	0.000000	9.459062	-3.708989	2.299550	1.877997	0.032777	23.068577	6.004341	0.000000	0.075591	0.339664	0.269426	0.140381	0.451754	0.286265	0.124189	0.825860	0.286265	0.086393	0.825860	0.235748	0.070194	0.692644	0.218908	0.043193	0.526140	0.202069	0.539941	3.842351	1.498465	0.000000	0.000000	21.501096	0.801216	7.349445	12.652635	-12.719654	73.046804	45.594806	33.970541	-8.198015	-1.745758	10.827554	-4.768948	48.735143	41.151589	82.943850	10.317003	1.253666
2.400000	0.095567	-9.098197	92.424351	0.107587	0.965860	0.439520	7.652295	2.862131	4.282895	1.145361	0.019990	13.029586	-10.345882	0.000000	9.715914	-3.688624	1.999114	1.899627	0.033155	23.093414	6.066489	0.000000	0.072743	0.331431	0.331925	0.135091	0.440803	0.352671	0.119509	0.805840	0.352671	0.083138	0.805840	0.290435	0.067549	0.675853	0.269689	0.041565	0.513386	0.248944	0.519596	3.749210	1.846070	0.000000	0.000000	22.160249	0.768090	7.206982	12.396383	-12.673522	72.349183	45.639043	33.308694	-7.851281	-1.777633	10.712093	-4.736700	48.303679	41.383423	83.298723	10.297398	1.384555
2.416667	0.044182	-9.381209	92.112341	0.107724	0.965562	0.439525	8.020556	2.822493	4.087832	1.214074	0.021190	13.369342	-9.594200	0.000000	9.959958	-3.666290	1.748027	1.903085	0.033215	23.078700	6.058251	0.000000	0.068587	0.323119	0.394721	0.127372	0.429748	0.419391	0.112681	0.785631	0.419391	0.078388	0.785631	0.345381	0.063690	0.658904	0.320711	0.039190	0.500511	0.296041	0.489908	3.655185	2.195318	0.000000	0.000000	22.783855	0.741552	7.039701	12.241260	-12.652736	71.841023	45.697184	33.234459	-7.663762	-1.776021	10.634434	-4.701839	47.944409	41.564345	83.602832	10.239807	1.399089
2.433333	-0.020509	-9.649725	91.770235	0.107889	0.965283	0.439619	8.380836	2.776571	3.989668	1.292319	0.022555	13.641679	-8.963189	0.000000	10.183397	-3.638235	1.465709	1.888474	0.032960	23.046436	6.062951	0.000000	0.063624	0.313561	0.456417	0.118156	0.417036	0.484943	0.104528	0.762392	0.484943	0.072716	0.762392	0.399365	0.059081	0.639414	0.370839	0.036355	0.485706	0.342313	0.454459	3.547066	2.538454	0.000000	0.000000	23.357386	0.733750	6.860769	12.198352	-12.642136	71.518099	45.766536	33.948454	-7.665184	-1.638012	10.552290	-4.678087	47.570639	41.760830	83.892067	10.134207	1.416140
2.450000	-0.088917	-9.899515	91.432698	0.108043	0.965029	0.439786	8.726887	2.728530	3.913815	1.386558	0.024200	13.864958	-8.394640	0.000000	10.390307	-3.609794	1.171010	1.866120	0.032570	23.005077	6.105923	0.000000	0.058222	0.303842	0.512486	0.108124	0.404110	0.544516	0.095653	0.738762	0.544516	0.066542	0.738762	0.448425	0.054065	0.619595	0.416395	0.033268	0.470652	0.384364	0.415874	3.437124	2.850291	0.000000	0.000000	23.867562	0.723545	6.660708	12.259644	-12.647696	71.379108	45.845370	35.368758	-7.838898	-1.419253	10.478093	-4.674897	47.232704	41.963519	84.177910	9.971065	1.368230
